{
 "cells": [
  {
   "cell_type": "code",
   "execution_count": 2,
   "metadata": {},
   "outputs": [
    {
     "name": "stdout",
     "output_type": "stream",
     "text": [
      "\n",
      "ffmpeg version 2024-11-25-git-04ce01df0b-essentials_build-www.gyan.dev Copyright (c) 2000-2024 the FFmpeg developers\n",
      "  built with gcc 14.2.0 (Rev1, Built by MSYS2 project)\n",
      "  configuration: --enable-gpl --enable-version3 --enable-static --disable-w32threads --disable-autodetect --enable-fontconfig --enable-iconv --enable-gnutls --enable-libxml2 --enable-gmp --enable-bzlib --enable-lzma --enable-zlib --enable-libsrt --enable-libssh --enable-libzmq --enable-avisynth --enable-sdl2 --enable-libwebp --enable-libx264 --enable-libx265 --enable-libxvid --enable-libaom --enable-libopenjpeg --enable-libvpx --enable-mediafoundation --enable-libass --enable-libfreetype --enable-libfribidi --enable-libharfbuzz --enable-libvidstab --enable-libvmaf --enable-libzimg --enable-amf --enable-cuda-llvm --enable-cuvid --enable-dxva2 --enable-d3d11va --enable-d3d12va --enable-ffnvcodec --enable-libvpl --enable-nvdec --enable-nvenc --enable-vaapi --enable-libgme --enable-libopenmpt --enable-libopencore-amrwb --enable-libmp3lame --enable-libtheora --enable-libvo-amrwbenc --enable-libgsm --enable-libopencore-amrnb --enable-libopus --enable-libspeex --enable-libvorbis --enable-librubberband\n",
      "  libavutil      59. 47.101 / 59. 47.101\n",
      "  libavcodec     61. 25.103 / 61. 25.103\n",
      "  libavformat    61.  9.100 / 61.  9.100\n",
      "  libavdevice    61.  4.100 / 61.  4.100\n",
      "  libavfilter    10.  6.101 / 10.  6.101\n",
      "  libswscale      8. 12.100 /  8. 12.100\n",
      "  libswresample   5.  4.100 /  5.  4.100\n",
      "  libpostproc    58.  4.100 / 58.  4.100\n",
      "Input #0, image2, from 'C:\\Users\\salmo\\Downloads\\audioToVideo\\room1.jpg':\n",
      "  Duration: 00:00:00.04, start: 0.000000, bitrate: 20385 kb/s\n",
      "  Stream #0:0: Video: mjpeg (Baseline), yuvj444p(pc, bt470bg/unknown/unknown), 900x600 [SAR 96:96 DAR 3:2], 25 fps, 25 tbr, 25 tbn\n",
      "Input #1, mp3, from 'C:\\Users\\salmo\\Downloads\\audioToVideo\\audio.mp3':\n",
      "  Metadata:\n",
      "    Encoded by      : LAME in FL Studio 20\n",
      "    BPM (beats per minute): 120\n",
      "    date            : 2018\n",
      "  Duration: 00:00:58.02, start: 0.025057, bitrate: 146 kb/s\n",
      "  Stream #1:0: Audio: mp3 (mp3float), 44100 Hz, stereo, fltp, 146 kb/s\n",
      "    Metadata:\n",
      "      encoder         : LAME3.100\n",
      "Stream mapping:\n",
      "  Stream #0:0 -> #0:0 (mjpeg (native) -> h264 (libx264))\n",
      "  Stream #1:0 -> #0:1 (mp3 (mp3float) -> aac (native))\n",
      "Press [q] to stop, [?] for help\n",
      "[swscaler @ 0000021fe78400c0] deprecated pixel format used, make sure you did set range correctly\n",
      "[libx264 @ 0000021fe68ba840] using SAR=1/1\n",
      "[libx264 @ 0000021fe68ba840] using cpu capabilities: MMX2 SSE2Fast SSSE3 SSE4.2 AVX FMA3 BMI2 AVX2\n",
      "[libx264 @ 0000021fe68ba840] profile High, level 3.1, 4:2:0, 8-bit\n",
      "[libx264 @ 0000021fe68ba840] 264 - core 164 r3198 da14df5 - H.264/MPEG-4 AVC codec - Copyleft 2003-2024 - http://www.videolan.org/x264.html - options: cabac=1 ref=3 deblock=1:0:0 analyse=0x3:0x113 me=hex subme=7 psy=1 psy_rd=1.00:0.00 mixed_ref=1 me_range=16 chroma_me=1 trellis=1 8x8dct=1 cqm=0 deadzone=21,11 fast_pskip=1 chroma_qp_offset=-2 threads=19 lookahead_threads=3 sliced_threads=0 nr=0 decimate=1 interlaced=0 bluray_compat=0 constrained_intra=0 bframes=3 b_pyramid=2 b_adapt=1 b_bias=0 direct=1 weightb=1 open_gop=0 weightp=2 keyint=250 keyint_min=25 scenecut=40 intra_refresh=0 rc_lookahead=40 rc=crf mbtree=1 crf=23.0 qcomp=0.60 qpmin=0 qpmax=69 qpstep=4 ip_ratio=1.40 aq=1:1.00\n",
      "Output #0, mp4, to 'C:\\Users\\salmo\\Downloads\\audioToVideo\\video.mp4':\n",
      "  Metadata:\n",
      "    encoder         : Lavf61.9.100\n",
      "  Stream #0:0: Video: h264 (avc1 / 0x31637661), yuv420p(pc, bt470bg/unknown/unknown, progressive), 900x600 [SAR 1:1 DAR 3:2], q=2-31, 25 fps, 12800 tbn\n",
      "    Metadata:\n",
      "      encoder         : Lavc61.25.103 libx264\n",
      "    Side data:\n",
      "      ICC Profile\n",
      "      cpb: bitrate max/min/avg: 0/0/0 buffer size: 0 vbv_delay: N/A\n",
      "  Stream #0:1: Audio: aac (LC) (mp4a / 0x6134706D), 44100 Hz, stereo, fltp, 192 kb/s\n",
      "    Metadata:\n",
      "      encoder         : Lavc61.25.103 aac\n",
      "frame=   71 fps=0.0 q=28.0 size=       0KiB time=00:00:02.76 bitrate=   0.1kbits/s speed=5.41x    \n",
      "frame=  199 fps=195 q=28.0 size=     256KiB time=00:00:07.88 bitrate= 266.2kbits/s speed=7.72x    \n",
      "frame=  199 fps=129 q=28.0 size=     256KiB time=00:00:07.88 bitrate= 266.2kbits/s speed=5.11x    \n",
      "frame=  321 fps=157 q=28.0 size=     256KiB time=00:00:12.76 bitrate= 164.4kbits/s speed=6.23x    \n",
      "frame=  481 fps=187 q=28.0 size=     512KiB time=00:00:19.16 bitrate= 218.9kbits/s speed=7.44x    \n",
      "frame=  647 fps=210 q=28.0 size=     768KiB time=00:00:25.80 bitrate= 243.9kbits/s speed=8.37x    \n",
      "frame=  815 fps=226 q=28.0 size=    1024KiB time=00:00:32.52 bitrate= 258.0kbits/s speed=9.03x    \n",
      "frame=  977 fps=237 q=28.0 size=    1280KiB time=00:00:39.00 bitrate= 268.9kbits/s speed=9.46x    \n",
      "frame= 1143 fps=246 q=28.0 size=    1536KiB time=00:00:45.64 bitrate= 275.7kbits/s speed=9.83x    \n",
      "frame= 1297 fps=252 q=28.0 size=    1792KiB time=00:00:51.80 bitrate= 283.4kbits/s speed=10.1x    \n",
      "frame= 1500 fps=265 q=-1.0 size=    1792KiB time=N/A bitrate=N/A speed=N/A    \n",
      "[out#0/mp4 @ 0000021fe6eb1cc0] video:638KiB audio:1411KiB subtitle:0KiB other streams:0KiB global headers:0KiB muxing overhead: 2.450715%\n",
      "frame= 1510 fps=267 q=-1.0 Lsize=    2099KiB time=00:00:57.98 bitrate= 296.6kbits/s speed=10.2x    \n",
      "[libx264 @ 0000021fe68ba840] frame I:7     Avg QP:15.50  size: 86459\n",
      "[libx264 @ 0000021fe68ba840] frame P:381   Avg QP:13.58  size:    45\n",
      "[libx264 @ 0000021fe68ba840] frame B:1122  Avg QP:21.33  size:    27\n",
      "[libx264 @ 0000021fe68ba840] consecutive B-frames:  0.9%  0.0%  0.0% 99.1%\n",
      "[libx264 @ 0000021fe68ba840] mb I  I16..4:  3.0% 90.1%  6.9%\n",
      "[libx264 @ 0000021fe68ba840] mb P  I16..4:  0.0%  0.0%  0.0%  P16..4:  0.2%  0.0%  0.0%  0.0%  0.0%    skip:99.8%\n",
      "[libx264 @ 0000021fe68ba840] mb B  I16..4:  0.0%  0.0%  0.0%  B16..8:  0.0%  0.0%  0.0%  direct: 0.0%  skip:100.0%  L0: 8.0% L1:92.0% BI: 0.0%\n",
      "[libx264 @ 0000021fe68ba840] 8x8 transform intra:90.1% inter:88.3%\n",
      "[libx264 @ 0000021fe68ba840] coded y,uvDC,uvAC intra: 93.3% 70.6% 62.1% inter: 0.0% 0.0% 0.0%\n",
      "[libx264 @ 0000021fe68ba840] i16 v,h,dc,p: 34% 15% 23% 29%\n",
      "[libx264 @ 0000021fe68ba840] i8 v,h,dc,ddl,ddr,vr,hd,vl,hu: 40% 21% 15%  2%  3%  5%  4%  5%  5%\n",
      "[libx264 @ 0000021fe68ba840] i4 v,h,dc,ddl,ddr,vr,hd,vl,hu: 44% 30%  6%  3%  3%  4%  2%  3%  3%\n",
      "[libx264 @ 0000021fe68ba840] i8c dc,h,v,p: 51% 15% 31%  3%\n",
      "[libx264 @ 0000021fe68ba840] Weighted P-Frames: Y:0.0% UV:0.0%\n",
      "[libx264 @ 0000021fe68ba840] ref P L0: 99.6%  0.1%  0.1%  0.2%\n",
      "[libx264 @ 0000021fe68ba840] ref B L0: 97.1%  0.0%  2.9%\n",
      "[libx264 @ 0000021fe68ba840] ref B L1: 99.1%  0.9%\n",
      "[libx264 @ 0000021fe68ba840] kb/s:86.40\n",
      "[aac @ 0000021fe68ea740] Qavg: 1144.766\n",
      "\n"
     ]
    }
   ],
   "source": [
    "import subprocess\n",
    "\n",
    "image_path = 'C:\\\\Users\\\\salmo\\\\Downloads\\\\audioToVideo\\\\room1.jpg'\n",
    "audio_path = 'C:\\\\Users\\\\salmo\\\\Downloads\\\\audioToVideo\\\\audio.mp3'\n",
    "output_path = 'C:\\\\Users\\\\salmo\\\\Downloads\\\\audioToVideo\\\\video.mp4'\n",
    "\n",
    "ffmpeg_path = r'C:\\Users\\salmo\\Downloads\\audioToVideo\\ffmpeg\\ffmpeg\\bin\\ffmpeg.exe'\n",
    "\n",
    "command = [\n",
    "    ffmpeg_path,\n",
    "    '-loop', '1',\n",
    "    '-i', image_path,\n",
    "    '-i', audio_path,\n",
    "    '-c:v', 'libx264',\n",
    "    '-pix_fmt', 'yuv420p',\n",
    "    '-c:a', 'aac',\n",
    "    '-b:a', '192k',\n",
    "    '-shortest',\n",
    "    output_path\n",
    "]\n",
    "\n",
    "# Run the command and capture any errors\n",
    "result = subprocess.run(command, stdout=subprocess.PIPE, stderr=subprocess.PIPE, text=True)\n",
    "\n",
    "# Print FFmpeg output (if any)\n",
    "print(result.stdout)\n",
    "print(result.stderr)"
   ]
  },
  {
   "cell_type": "code",
   "execution_count": null,
   "metadata": {},
   "outputs": [],
   "source": []
  }
 ],
 "metadata": {
  "kernelspec": {
   "display_name": ".venv",
   "language": "python",
   "name": "python3"
  },
  "language_info": {
   "codemirror_mode": {
    "name": "ipython",
    "version": 3
   },
   "file_extension": ".py",
   "mimetype": "text/x-python",
   "name": "python",
   "nbconvert_exporter": "python",
   "pygments_lexer": "ipython3",
   "version": "3.11.4"
  }
 },
 "nbformat": 4,
 "nbformat_minor": 2
}
